<svg width="1440" height="217" viewBox="0 0 1440 217" fill="none" xmlns="http://www.w3.org/2000/svg">
<g clip-path="url(#clip0_504_1013)">
<path opacity="0.5" d="M-23.3 245.682C398.177 245.682 1465.68 421.76 1465.68 284.916C1465.68 148.072 1944.43 36.873 1522.96 36.873C1324.21 36.873 1054.39 40.428 802.998 25.643C521.271 9.07596 256.9 -13.773 59.977 11.438C-312.665 59.145 -444.776 245.683 -23.3 245.683V245.682Z" fill="#3A86FF"/>
<mask id="mask0_504_1013" style="mask-type:luminance" maskUnits="userSpaceOnUse" x="-285" y="0" width="1982" height="338">
<g opacity="0.5">
<path d="M-23.3 245.682C398.177 245.682 1465.68 421.76 1465.68 284.916C1465.68 148.072 1944.43 36.873 1522.96 36.873C1324.21 36.873 1054.39 40.428 802.998 25.643C521.271 9.07596 256.9 -13.773 59.977 11.438C-312.665 59.145 -444.776 245.683 -23.3 245.683V245.682Z" fill="white"/>
</g>
</mask>
<g mask="url(#mask0_504_1013)">
<path opacity="0.5" fill-rule="evenodd" clip-rule="evenodd" d="M160.7 346.682C582.177 346.682 1133.44 526.469 1133.44 389.625C1133.44 252.781 1713.39 134.379 1291.91 134.379C870.434 134.379 584.941 -12.6169 584.941 124.227C584.941 261.07 -260.777 346.682 160.7 346.682Z" fill="#3A86FF"/>
</g>
</g>
<defs>
<clipPath id="clip0_504_1013">
<rect width="1440" height="217" fill="white"/>
</clipPath>
</defs>
</svg>
